<svg xmlns="http://www.w3.org/2000/svg" viewBox="0 0 1231.26 479"><defs><style>.a{fill:#af916d;}.b{fill:#fff;}</style></defs><rect class="a" width="1160.99" height="479" rx="24.81"/><path class="a" d="M1182.67,455h-9v-6h24.45v6h-9V478.5h-6.49Z" transform="translate(-1.37 -1.5)"/><path class="a" d="M1203.12,449h7l7.76,12.48,7.75-12.48h7V478.5h-6.45V459.23l-8.3,12.61h-.17l-8.23-12.48V478.5h-6.36Z" transform="translate(-1.37 -1.5)"/><path class="b" d="M1095.72,86.66H886.88V50.05a9.52,9.52,0,0,0-9.49-9.49H51.87a9.52,9.52,0,0,0-9.49,9.49v92.68a9.52,9.52,0,0,0,9.49,9.49H877.39a9.52,9.52,0,0,0,9.49-9.49V104.66h208.84a8.39,8.39,0,0,1,8.38,8.39V413.28a8.39,8.39,0,0,1-8.38,8.38H527.66v18h568.06a26.4,26.4,0,0,0,26.38-26.38V113.05A26.41,26.41,0,0,0,1095.72,86.66ZM111.51,105.87c0,7-5.66,10.45-14.26,10.45H79.13V78.22H96.82c4.35,0,7.78,1.2,10,3.38a8.73,8.73,0,0,1,2.61,6.47v.11a8.86,8.86,0,0,1-5,8.22c4.41,1.69,7.13,4.25,7.13,9.36Zm39.3,0c0,7-5.66,10.45-14.26,10.45H118.42V78.22h17.69c4.35,0,7.78,1.2,10,3.38a8.73,8.73,0,0,1,2.61,6.47v.11a8.86,8.86,0,0,1-5,8.22c4.4,1.69,7.13,4.25,7.13,9.36Zm39.29,0c0,7-5.66,10.45-14.26,10.45H157.71V78.22H175.4c4.36,0,7.79,1.2,10,3.38A8.7,8.7,0,0,1,188,88.07v.11a8.86,8.86,0,0,1-5,8.22c4.41,1.69,7.13,4.25,7.13,9.36Zm57.09,10.45h-7.13L221.61,92.1v24.22h-8.28V78.22h7.73l17.85,23.46V78.22h8.28Zm37.49,0-3.48-8.54H265.09l-3.48,8.54h-8.55L269.39,78h7.73l16.33,38.37ZM323.27,86H311.68v30.37H303.3V86H291.7V78.22h31.57Zm15.18,30.37h-8.38V78.22h8.38Zm48.33-19c0,10.83-8.54,19.71-20.3,19.71s-20.19-8.77-20.19-19.6v-.11c0-10.83,8.54-19.7,20.3-19.7s20.19,8.76,20.19,19.59Zm41.31,19H421L402.51,92.1v24.22h-8.28V78.22H402l17.86,23.46V78.22h8.27Zm37.5,0-3.49-8.54H446l-3.48,8.54H434L450.29,78H458l16.33,38.37Zm42,0H480.22V78.22h8.39V108.7h19ZM560.39,91.5c0,8.82-6.86,13.39-15.4,13.39h-6.37v11.43h-8.38V78.22H545.8c9.09,0,14.59,5.39,14.59,13.17Zm29.33,24.82-8.16-12.19H575v12.19h-8.38V78.22H584c4.84,0,8.6,1.36,11.1,3.87a12,12,0,0,1,3.27,8.71v.1a11.84,11.84,0,0,1-8.17,11.82l9.31,13.6Zm55-19c0,10.83-8.55,19.71-20.31,19.71s-20.19-8.77-20.19-19.6v-.11c0-10.83,8.55-19.7,20.3-19.7s20.2,8.76,20.2,19.59Zm42.07,13.67a24.79,24.79,0,0,1-16.28,6c-11.86,0-20-8.33-20-19.6v-.11a19.56,19.56,0,0,1,20-19.7c6.85,0,11,1.85,15,5.22l-5.28,6.37c-2.93-2.45-5.55-3.86-10-3.86-6.09,0-10.94,5.39-10.94,11.86v.11c0,7,4.79,12.09,11.54,12.09a13.39,13.39,0,0,0,7.89-2.29v-5.44h-8.43V94.39h16.55ZM718,116.32l-8.17-12.19h-6.58v12.19h-8.38V78.22h17.41c4.85,0,8.6,1.36,11.11,3.87a12,12,0,0,1,3.26,8.71v.1a11.84,11.84,0,0,1-8.16,11.82l9.31,13.6Zm44.57,0-3.48-8.54H743l-3.49,8.54H731L747.28,78H755l16.32,38.37Zm52.74,0H807V91.45l-10.72,16.27H796L785.43,91.61v24.71h-8.22V78.22h9l10,16.11,10-16.11h9ZM852,105.06c0,7.56-5.77,11.81-14,11.81a24.29,24.29,0,0,1-16.17-6.1l5-5.93c3.43,2.83,7,4.62,11.37,4.62,3.43,0,5.5-1.36,5.5-3.59v-.11c0-2.12-1.31-3.21-7.67-4.84-7.68-2-12.63-4.08-12.63-11.65v-.11c0-6.91,5.55-11.48,13.33-11.48a22.06,22.06,0,0,1,14.15,4.84l-4.35,6.32c-3.37-2.34-6.69-3.76-9.91-3.76s-4.89,1.47-4.89,3.32v.11c0,2.5,1.63,3.32,8.21,5,7.73,2,12.09,4.79,12.09,11.43Z" transform="translate(-1.37 -1.5)"/><polygon class="b" points="266.72 98.88 276.84 98.88 271.78 86.52 266.72 98.88"/><path class="b" d="M366.48,85.3c-6.75,0-11.43,5.33-11.43,11.86v.11c0,6.53,4.79,12,11.54,12S378,103.91,378,97.38v-.11C378,90.74,373.23,85.3,366.48,85.3Z" transform="translate(-1.37 -1.5)"/><polygon class="b" points="447.62 98.88 457.74 98.88 452.68 86.52 447.62 98.88"/><path class="b" d="M175.57,100.59h-9.69V109h10c3.7,0,5.93-1.31,5.93-4.14v-.11C181.77,102.17,179.87,100.59,175.57,100.59Z" transform="translate(-1.37 -1.5)"/><path class="b" d="M545.1,85.79h-6.48V97.44h6.64c4.19,0,6.64-2.51,6.64-5.77v-.11C551.9,87.8,549.29,85.79,545.1,85.79Z" transform="translate(-1.37 -1.5)"/><path class="b" d="M583.3,85.79H575V96.73h8.49c4.09,0,6.43-2.18,6.43-5.39v-.11C589.89,87.64,587.38,85.79,583.3,85.79Z" transform="translate(-1.37 -1.5)"/><path class="b" d="M179.65,89.6v-.11c0-2.5-2-3.92-5.5-3.92h-8.27v8.06h7.73C177.31,93.63,179.65,92.43,179.65,89.6Z" transform="translate(-1.37 -1.5)"/><path class="b" d="M140.36,89.6v-.11c0-2.5-2-3.92-5.5-3.92h-8.27v8.06h7.72C138,93.63,140.36,92.43,140.36,89.6Z" transform="translate(-1.37 -1.5)"/><path class="b" d="M101.06,89.6v-.11c0-2.5-2-3.92-5.49-3.92H87.29v8.06H95C98.72,93.63,101.06,92.43,101.06,89.6Z" transform="translate(-1.37 -1.5)"/><path class="b" d="M136.27,100.59h-9.68V109h10c3.7,0,5.93-1.31,5.93-4.14v-.11C142.48,102.17,140.57,100.59,136.27,100.59Z" transform="translate(-1.37 -1.5)"/><path class="b" d="M97,100.59H87.29V109h10c3.7,0,5.94-1.31,5.94-4.14v-.11C103.19,102.17,101.28,100.59,97,100.59Z" transform="translate(-1.37 -1.5)"/><polygon class="b" points="744.6 98.88 754.73 98.88 749.66 86.52 744.6 98.88"/><path class="b" d="M711.58,85.79h-8.33V96.73h8.49c4.08,0,6.42-2.18,6.42-5.39v-.11C718.16,87.64,715.66,85.79,711.58,85.79Z" transform="translate(-1.37 -1.5)"/><path class="b" d="M624.44,85.3C617.7,85.3,613,90.63,613,97.16v.11c0,6.53,4.79,12,11.54,12S636,103.91,636,97.38v-.11C636,90.74,631.19,85.3,624.44,85.3Z" transform="translate(-1.37 -1.5)"/><path class="b" d="M559.23,196.26c5.62,0,10,2.41,14.37,6.35l7.87-9.08c-5.22-5.14-11.56-8.67-22.16-8.67C542,184.86,530,198,530,213.93v.16c0,16.14,12.28,28.91,28.83,28.91,10.84,0,17.26-3.85,23-10L574,225c-4.41,4-8.35,6.59-14.77,6.59-9.64,0-16.3-8-16.3-17.67v-.16C542.93,204.13,549.75,196.26,559.23,196.26Z" transform="translate(-1.37 -1.5)"/><path class="b" d="M617.61,184.86c-17.35,0-30,13.09-30,29.07v.16c0,16,12.45,28.91,29.8,28.91s29.95-13.09,29.95-29.07v-.16C647.4,197.79,635,184.86,617.61,184.86Zm16.86,29.23c0,9.64-6.9,17.51-16.86,17.51s-17-8-17-17.67v-.16c0-9.64,6.91-17.51,16.87-17.51s17,8,17,17.67Z" transform="translate(-1.37 -1.5)"/><path class="b" d="M681.37,185.82h-23V242h12.37V225.17h9.39c12.61,0,22.73-6.74,22.73-19.75v-.16C702.89,193.77,694.78,185.82,681.37,185.82Zm9,19.84c0,4.82-3.61,8.51-9.8,8.51h-9.79V197h9.55c6.19,0,10,3,10,8.51Z" transform="translate(-1.37 -1.5)"/><path class="b" d="M735,185.82H712V242h12.37V225.17h9.39c12.61,0,22.73-6.74,22.73-19.75v-.16C756.53,193.77,748.42,185.82,735,185.82Zm9,19.84c0,4.82-3.61,8.51-9.79,8.51h-9.8V197H734c6.18,0,10,3,10,8.51Z" transform="translate(-1.37 -1.5)"/><path class="b" d="M779.34,185.42,755.25,242h12.6L773,229.43h23.77L801.9,242h12.93l-24.09-56.62Zm-1.93,33.09,7.47-18.23,7.47,18.23Z" transform="translate(-1.37 -1.5)"/><path class="b" d="M552.72,307.86c-6.42,0-11.72-2.65-16.78-6.83l-7.31,8.76a35.79,35.79,0,0,0,23.85,9c12.13,0,20.64-6.26,20.64-17.43v-.16c0-9.8-6.42-13.89-17.83-16.86-9.71-2.49-12.12-3.7-12.12-7.39v-.16c0-2.73,2.49-4.9,7.22-4.9S560,274,565,277.42l6.42-9.31A32.51,32.51,0,0,0,550.55,261c-11.48,0-19.67,6.75-19.67,16.94v.16c0,11.17,7.31,14.3,18.63,17.19,9.4,2.41,11.32,4,11.32,7.15v.16C560.83,305.85,557.78,307.86,552.72,307.86Z" transform="translate(-1.37 -1.5)"/><path class="b" d="M590.46,318l5.14-12.61h23.78L624.51,318h12.93l-24.09-56.62H602L577.86,318Zm17-41.76L615,294.45H600Z" transform="translate(-1.37 -1.5)"/><polygon class="b" points="644.75 316.48 657.11 316.48 657.11 294.71 683.93 294.71 683.93 283.47 657.11 283.47 657.11 271.51 687.55 271.51 687.55 260.26 644.75 260.26 644.75 316.48"/><polygon class="b" points="697.42 316.48 740.23 316.48 740.23 305.48 709.71 305.48 709.71 293.67 736.21 293.67 736.21 282.67 709.71 282.67 709.71 271.26 739.82 271.26 739.82 260.26 697.42 260.26 697.42 316.48"/><polygon class="b" points="578.66 392.41 578.66 336.2 566.29 336.2 566.29 358.44 543.49 358.44 543.49 336.2 531.12 336.2 531.12 392.41 543.49 392.41 543.49 369.85 566.29 369.85 566.29 392.41 578.66 392.41"/><path class="b" d="M612.79,337.3,588.7,393.91h12.6l5.14-12.6h23.78l5.14,12.6h12.93l-24.1-56.61Zm-1.93,33.08,7.47-18.23,7.47,18.23Z" transform="translate(-1.37 -1.5)"/><path class="b" d="M703.85,356.41v-.16c0-5.3-1.68-9.72-4.82-12.85-3.69-3.69-9.23-5.7-16.38-5.7H657v56.21h12.37v-18H679l12,18h14.46l-13.73-20.07C699,371.19,703.85,365.49,703.85,356.41Zm-12.52.64c0,4.74-3.46,7.95-9.48,7.95H669.32V348.86h12.29c6,0,9.72,2.73,9.72,8Z" transform="translate(-1.37 -1.5)"/><path class="b" d="M759.66,352.4v-.17a12.88,12.88,0,0,0-3.85-9.55c-3.22-3.21-8.27-5-14.7-5H715v56.21h26.74c12.69,0,21-5.13,21-15.41v-.16c0-7.55-4-11.33-10.52-13.82C756.29,362.27,759.66,358.74,759.66,352.4Zm-32.6-3.86h12.2c5.22,0,8.12,2.09,8.12,5.78v.16c0,4.18-3.46,5.95-8.92,5.95h-11.4ZM750.51,377c0,4.18-3.3,6.1-8.76,6.1H727.06V370.71h14.29c6.35,0,9.16,2.33,9.16,6.1Z" transform="translate(-1.37 -1.5)"/><path class="b" d="M770.5,365.81V366c0,16,12.45,28.91,29.79,28.91s30-13.09,30-29.07v-.16c0-16-12.45-28.91-29.8-28.91S770.5,349.83,770.5,365.81Zm46.82,0V366c0,9.64-6.91,17.5-16.87,17.5s-17-8-17-17.66v-.16c0-9.64,6.9-17.51,16.86-17.51S817.32,356.17,817.32,365.81Z" transform="translate(-1.37 -1.5)"/><path class="b" d="M888.14,356.41v-.16c0-5.3-1.68-9.72-4.81-12.85-3.7-3.69-9.24-5.7-16.39-5.7H841.25v56.21h12.36v-18h9.72l12,18h14.45L876.1,373.84C883.25,371.19,888.14,365.49,888.14,356.41Zm-12.52.64c0,4.74-3.46,7.95-9.48,7.95H853.61V348.86H865.9c6,0,9.72,2.73,9.72,8Z" transform="translate(-1.37 -1.5)"/><path class="b" d="M441.28,352.1h-1.61v2.13h1.61c.84,0,1.31-.43,1.31-1.06S442.08,352.1,441.28,352.1Z" transform="translate(-1.37 -1.5)"/><path class="b" d="M208.22,286.77c-2.89-.49-4.05,2.45-5.12,4.67-3.48,7.2-6.86,14.44-10.22,21.69a16.05,16.05,0,0,0-1.38,4.11c-.55,3.31.88,4.81,4.17,4.27a78.35,78.35,0,0,0,7.84-1.87c8.94-2.43,9.51-3.22,9.51-12.49-.53-4.76-1-9.51-1.6-14.26C211.13,290.43,211.15,287.27,208.22,286.77Z" transform="translate(-1.37 -1.5)"/><path class="b" d="M311.08,280.49c2.65-3.76.76-7.57-3.76-8.26a29.91,29.91,0,0,0-4.34,0l0-.26c-1.95.18-4,0-5.83.63-6.7,2.36-13.43,4.71-19.91,7.61-8.66,3.86-9.75,6.15-8.9,15.48.14,1.45.25,2.9.51,4.33.94,5.26,2.82,6.35,7.74,4.44A99.28,99.28,0,0,0,303.39,289,42.28,42.28,0,0,0,311.08,280.49Z" transform="translate(-1.37 -1.5)"/><path class="b" d="M486.2,180.07H52.48A10.66,10.66,0,0,0,41.85,190.7V429a10.65,10.65,0,0,0,10.63,10.62H486.2A10.65,10.65,0,0,0,496.83,429V190.7A10.66,10.66,0,0,0,486.2,180.07ZM402.12,289.25a16,16,0,0,1,.49-2.76c1.22-4.57,4.19-5.89,8.47-3.89,8.29,3.87,10,14.29,3.33,20.74-2.9,2.82-6.9,2.69-9-.9A24.28,24.28,0,0,1,402,293.5,15.76,15.76,0,0,1,402.12,289.25Zm-26-11.53c4.29-2,7.25-.68,8.47,3.89a16,16,0,0,1,.49,2.76,15.76,15.76,0,0,1,.08,4.25,24.4,24.4,0,0,1-3.41,8.95c-2.05,3.58-6.06,3.71-9,.89C366.15,292,367.82,281.59,376.11,277.72ZM153.78,353.34c-1.37,9.23-8.23,14.7-17.33,13.12a149.9,149.9,0,0,1-20.11-5c-15.44-5-24.29-16-28.14-31.64-4-16.1-1.54-37,11-52.62a43.86,43.86,0,0,1,9.17-9.85c9.48-7.53,20-12.22,32.33-10.51a147.84,147.84,0,0,1,18.44,3.69c2.27.61,4.33,2.62,6.07,4.4a6.47,6.47,0,0,1,1.14,8.11c-1.63,2.91-4.51,3.61-7.57,3.25-3.94-.45-7.87-1.09-11.79-1.74-5.59-.93-11.18-2-16.68.38a45.78,45.78,0,0,0-11.8,7.17c-9.12,9.13-11.47,22.43-10.77,34.41a45.91,45.91,0,0,0,2.77,12.4c4.29,12.08,14.39,18.94,27.18,19.19,2.94-.5,5.9-.92,8.83-1.52C151.88,345.49,154.58,348,153.78,353.34Zm90.64-25.46c-5.12,5.55-5.49,11.93-4.85,18.91.55,5.94-.57,11.57-5,16.12-3.79,3.87-9.39,3-11.35-2.17-1-2.59-1.2-5.46-1.81-8.19-.95-4.25-1.75-8.55-3-12.72s-3-5.25-7.17-4.79c-5.13.57-10.22,1.51-15.34,2.27a29,29,0,0,1-3.08.33c-6.57.28-8,1.33-10.24,7.41-1.67,4.47-3.36,8.95-5.28,13.31-1.86,4.2-4.59,7.71-9.28,9-5.86,1.61-11.64-2.39-11.45-8.76a34.31,34.31,0,0,1,1.14-4.25q12.3-32.79,24.66-65.56,3.12-8.31,6-16.7c3.12-9,8.66-14.81,18.75-15.62,3.16-.25,6.28-2,9.23-3.44,3.82-1.87,7.19-1.47,9.16,2.32a28.43,28.43,0,0,1,3.1,9.68c1.5,13,2.75,26.06,3.84,39.11.6,7.23,2.68,13.1,10.06,16.05C246,321.56,246.93,325.15,244.42,327.88Zm90.13,32.73c-4.35,7.83-16.19,9.56-22.34,2.21-10.66-12.73-22.17-24.75-33.48-36.93-1.55-1.68-4.26-3.83-6-3.47-2.91.6-2.47,4.12-2.45,6.67,0,4.05.14,8.11.43,12.16a13.61,13.61,0,0,1-6.58,13.23c-5,3.24-10.61,1.09-11.77-4.72a67.94,67.94,0,0,1-1-12.1c-.15-8.53-.05-17.06-.05-25.59-.32,0,.11-9-.21-9-.39-10.5-1.65-12-1.88-22.51-.17-7.83,1.91-10.15,9.5-12.28,12.54-3.51,25-7.42,37.58-10.71,7-1.82,14.08-3.58,21.45-2.39,9.74,1.57,15.28,9.36,13.66,19.12-1.08,6.52-3.86,12-9.14,16.11-6.53,5.12-12.92,10.42-19.38,15.64-5.62,4.55-5.86,6-1.28,11.61,6.46,7.87,12.87,15.79,19.69,23.34a29.63,29.63,0,0,0,9,6.36C336.13,350.22,337.72,354.91,334.55,360.61Zm23.08-1.35c-12.05-9.13-18.61-19.74-19.95-31.6-.71-6.33-.94-12.67-1.53-20.89,1.33-11.12,2.68-24.09,4.53-37,.79-5.53,3.24-8.47,11.24-10.6,4.47-1.18,7.09.1,7.09.1,5.11,2.82,7,6.66,5.83,10.73-4.26,14.92-5,30-5.19,45.07-.12,10.56,3.67,20.41,14.42,28.83a31.18,31.18,0,0,0,2.55,1.89c5.18,3.31,18.75,3.41,22.93.9,10-4.5,14.84-15.47,17.63-22.15,6.65-15.91,6.33-32.34,7.05-48.65.11-2.6.07-5.2,0-7.81,0-7.26-.94-11.51,8.71-14.79,5.89-2,11.83-.43,13.67,3.6a10,10,0,0,1,.71,5.53c-2,14-4.35,27.92-6.15,41.9-2.42,18.81-12,36.22-26.58,52.4C402.15,370.51,373.78,371.5,357.63,359.26Zm90.59-4.78a7.37,7.37,0,1,1-14.74,0v0a7.37,7.37,0,1,1,14.74,0Z" transform="translate(-1.37 -1.5)"/><path class="b" d="M440.85,347.84a6.57,6.57,0,0,0-6.52,6.64v0a6.49,6.49,0,0,0,6.52,6.59,6.56,6.56,0,0,0,6.53-6.64v0A6.5,6.5,0,0,0,440.85,347.84Zm1.66,10.35-1.66-2.43h-1.18v2.43H437.8v-7.71h3.6c1.78,0,3.1.81,3.1,2.56a2.37,2.37,0,0,1-1.7,2.38l1.95,2.77Z" transform="translate(-1.37 -1.5)"/><path class="b" d="M930.77,290.35l-12.42-9.94c-6.69-5.35-19.44-5.55-26.55-.88-11.38,7.47.57,15.26,6.94,20.32q13,10.35,26,20.75l0,.06s23.51,26.4,51.5,31.64c4.39-.1,10.95.72,16.46-.37,8.41-1.67,18.18-7,23.6-11,7.21-5.37,15.88-16.54,20.69-33.75,2-7.27,4.63-24.16,6.85-39.32l11-36.14a11.71,11.71,0,0,0-22.4-6.84l-9.12,29.87a3.74,3.74,0,0,1-5,2.41l-.07,0a3.79,3.79,0,0,1-2.35-3.91c.86-8.17,3.59-34,5.22-49.49.43-4-1.16-7.24-3.94-8.89a11.68,11.68,0,0,0-19.42,7.45L993,247.36a3.9,3.9,0,0,1-4.74,2.83l-.07,0a4,4,0,0,1-3-3.41l-6.24-56a11.58,11.58,0,0,0-13.78-10.22h0a13.77,13.77,0,0,0-11,14.8l5.95,53.38a4.5,4.5,0,0,1-3.72,4.92h-.08a4.5,4.5,0,0,1-4.94-2.84c-3.08-8.17-11.8-31.25-17-45a11.42,11.42,0,0,0-14.73-6.65l-1.56.58a11.44,11.44,0,0,0-6.65,14.74l23.78,63C935.38,283.66,934.66,288.75,930.77,290.35Z" transform="translate(-1.37 -1.5)"/></svg>